<svg height='60px' width='60px'  fill="#000000" xmlns="http://www.w3.org/2000/svg" xmlns:xlink="http://www.w3.org/1999/xlink" version="1.1" x="0px" y="0px" viewBox="0 0 60 60" style="enable-background:new 0 0 60 60;" xml:space="preserve"><path d="M41.99,29c0.37,0,0.71-0.2,0.88-0.52l6.16-11.2c0-0.01,0-0.02,0.01-0.03c0.09-0.15,0.17-0.31,0.24-0.46l0.02-0.05  c0.01-0.02,0.02-0.03,0.02-0.05c0.45-0.96,0.67-1.99,0.67-3.05c0-4.21-3.58-7.64-8-7.64c-4.41,0-8,3.43-8,7.64  c0,1.04,0.22,2.05,0.65,3.01c0.02,0.03,0.03,0.06,0.05,0.09c0.08,0.18,0.17,0.35,0.27,0.54c0.01,0,0.01,0,0.01,0l6.15,11.2  C41.29,28.8,41.64,29,41.99,29z M37.99,14c0-2.2,1.8-4,4-4c2.21,0,4,1.8,4,4c0,2.21-1.79,4-4,4C39.79,18,37.99,16.21,37.99,14z"></path><path d="M53.01,52h-4.87l-7.14-14.91l-5.82,2.33c-0.13,0.05-0.25,0.07-0.37,0.07c-0.4,0-0.78-0.24-0.93-0.63l-1.92-4.79l-7.33,5.23  c-0.29,0.22-0.68,0.25-1.01,0.09l-4.66-2.21L11.86,52H6.99c-0.55,0-1,0.45-1,1c0,0.56,0.45,1,1,1h46.01c0.55,0,1-0.44,1-1  C54.01,52.45,53.55,52,53.01,52z"></path><path d="M31.83,31.7c0.25-0.18,0.57-0.23,0.86-0.15c0.29,0.09,0.53,0.3,0.65,0.59l2.02,5.05l4.63-1.85L30.86,19.5  c-0.36-0.62-1.37-0.62-1.73,0l-9.18,15.94l3.99,1.89L31.83,31.7z"></path></svg>